<svg width="32" height="32" viewBox="0 0 32 32" fill="none" xmlns="http://www.w3.org/2000/svg">
<path d="M28 11.9295V21.6999C28 22.6961 27.6189 23.6545 26.9348 24.3786C26.2506 25.1027 25.3154 25.5375 24.3208 25.5939L24.1 25.5999H7.9C6.90383 25.6 5.9454 25.2188 5.22132 24.5347C4.49724 23.8505 4.0624 22.9153 4.006 21.9207L4 21.6999V11.9295L15.5824 17.9967C15.7112 18.0642 15.8545 18.0994 16 18.0994C16.1454 18.0994 16.2887 18.0642 16.4176 17.9967L28 11.9295ZM7.9 6.3999H24.1C25.0667 6.39979 25.999 6.7587 26.716 7.40702C27.4331 8.05535 27.8838 8.94688 27.9808 9.9087L16 16.1847L4.0192 9.9087C4.11223 8.98508 4.53166 8.12492 5.2021 7.48286C5.87254 6.84079 6.75002 6.45893 7.6768 6.4059L7.9 6.3999Z" fill="#222222"/>
</svg>
