<svg width="32" height="32" viewBox="0 0 32 32" fill="none" xmlns="http://www.w3.org/2000/svg">
<g clip-path="url(#clip0_820_1240)">
<path d="M20.1478 17.7074C19.2113 17.7074 18.4522 18.7601 18.4522 20.054C18.4522 21.3505 19.2113 22.4031 20.1478 22.4031C21.0844 22.4031 21.8435 21.3505 21.8435 20.054C21.8422 18.7601 21.0844 17.7074 20.1478 17.7074ZM26.0513 11.5992C26.2457 11.1231 26.2535 8.4179 25.2231 5.82617C25.2231 5.82617 22.8609 6.08574 19.287 8.53921C18.537 8.33051 17.2679 8.22877 16.0013 8.22877C14.7322 8.22877 13.4644 8.33051 12.7144 8.53921C9.13918 6.08574 6.77701 5.82617 6.77701 5.82617C5.74788 8.4179 5.75832 11.1231 5.95006 11.5992C4.73962 12.914 4.00006 14.4935 4.00006 16.6483C4.00006 26.0213 11.7779 26.1713 13.7396 26.1713L16.0013 26.1739L18.2605 26.1713C20.2248 26.1713 28 26.0213 28 16.6483C28 14.4935 27.2617 12.914 26.0513 11.5992ZM16.0366 25.0196H15.9635C11.0448 25.0196 7.21266 24.434 7.21266 19.6522C7.21266 18.5057 7.61701 17.444 8.57831 16.5622C10.1787 15.0922 12.8892 15.8696 15.9635 15.8696H16.0366C19.1109 15.8696 21.8226 15.0922 23.4244 16.5622C24.3831 17.444 24.7874 18.5057 24.7874 19.6522C24.7874 24.434 20.9565 25.0196 16.0366 25.0196ZM11.8535 17.7074C10.917 17.7074 10.1579 18.7601 10.1579 20.054C10.1579 21.3505 10.917 22.4031 11.8535 22.4031C12.7913 22.4031 13.5505 21.3505 13.5505 20.054C13.5505 18.7601 12.7913 17.7074 11.8535 17.7074Z" fill="#222222"/>
</g>
<defs>
<clipPath id="clip0_820_1240">
<rect width="24" height="24" fill="white" transform="translate(4 4)"/>
</clipPath>
</defs>
</svg>
