<svg width="32" height="32" viewBox="0 0 32 32" fill="none" xmlns="http://www.w3.org/2000/svg">
<path d="M12.6648 11.6108H16.9056V13.9538H16.967C17.557 12.812 19.0008 11.6108 21.1542 11.6108C25.631 11.6108 26.4587 14.6147 26.4587 18.5224V26.4814H22.037V19.4262C22.037 17.7441 22.0048 15.578 19.738 15.578C17.4359 15.578 17.0834 17.4104 17.0834 19.3039V26.4814H12.6648V11.6108ZM5.00153 11.6108H9.59949V26.4814H5.00153V11.6108ZM9.59949 7.48009C9.59929 8.13763 9.3568 8.76815 8.92537 9.23295C8.49394 9.69775 7.90891 9.95875 7.29898 9.95853C6.68905 9.95831 6.10418 9.69689 5.67304 9.23178C5.2419 8.76668 4.9998 8.13598 5 7.47844C5.0002 6.8209 5.24269 6.19037 5.67412 5.72558C5.88774 5.49543 6.14132 5.3129 6.42038 5.18841C6.69944 5.06391 6.9985 4.99989 7.30051 5C7.60252 5.00011 7.90155 5.06434 8.18053 5.18904C8.45951 5.31373 8.71297 5.49645 8.92645 5.72674C9.13993 5.95704 9.30925 6.23041 9.42473 6.53125C9.54021 6.83209 9.59959 7.15451 9.59949 7.48009Z" fill="#222222"/>
</svg>
